<svg xmlns="http://www.w3.org/2000/svg" xml:space="preserve" style="fill-rule:evenodd;clip-rule:evenodd;stroke-linejoin:round;stroke-miterlimit:2" viewBox="0 0 1000 1000"><clipPath id="a"><path d="M825 97.5v805c0 53.812-43.688 97.5-97.5 97.5h-455c-53.812 0-97.5-43.688-97.5-97.5v-805C175 43.688 218.688 0 272.5 0h455C781.312 0 825 43.688 825 97.5Z"/></clipPath><g clip-path="url(#a)"><path d="M1000 97.5v805c0 53.812-67.213 97.5-150 97.5H150c-82.787 0-150-43.688-150-97.5v-805C0 43.688 67.213 0 150 0h700c82.787 0 150 43.688 150 97.5Z" style="fill:#dde4f0" transform="matrix(.65 0 0 1 175 0)"/><path d="M1076.92 97.5v805c0 81.407-101.678 147.5-226.92 147.5H150c-125.242 0-226.923-66.093-226.923-147.5v-805C-76.923 16.093 24.758-50 150-50h700c125.242 0 226.92 66.093 226.92 147.5Zm-153.843 0c0-26.216-32.745-47.5-73.077-47.5H150c-40.332 0-73.077 21.284-73.077 47.5v805c0 26.216 32.745 47.5 73.077 47.5h700c40.332 0 73.077-21.284 73.077-47.5v-805Z" style="fill:#6181b8" transform="matrix(.65 0 0 1 175 0)"/><path d="m340.397 161.863 121.809 70.326a30 30 0 0 1 15 25.981v140.653a30 30 0 0 1-15 25.981L340.397 495.13a30 30 0 0 1-30 0l-121.809-70.326a30 30 0 0 1-15-25.981V258.17a30 30 0 0 1 15-25.981l121.809-70.326a30 30 0 0 1 30 0Z" style="fill:#6181b8" transform="rotate(90 326.946 501.55)"/></g></svg>